<svg xmlns="http://www.w3.org/2000/svg" xmlns:xlink="http://www.w3.org/1999/xlink" width="500" zoomAndPan="magnify" viewBox="0 0 375 374.999991" height="500" preserveAspectRatio="xMidYMid meet" version="1.0"><defs><g/><clipPath id="762db2e020"><path d="M 155 101 L 254 101 L 254 196 L 155 196 Z M 155 101 " clip-rule="nonzero"/></clipPath><clipPath id="a70666bbca"><path d="M 169.253906 88.277344 L 266.972656 114.785156 L 241.839844 207.4375 L 144.121094 180.929688 Z M 169.253906 88.277344 " clip-rule="nonzero"/></clipPath><clipPath id="5c8748d7d3"><path d="M 169.253906 88.277344 L 266.972656 114.785156 L 241.839844 207.4375 L 144.121094 180.929688 Z M 169.253906 88.277344 " clip-rule="nonzero"/></clipPath></defs><g fill="#ffffff" fill-opacity="1"><g transform="translate(57.310222, 180.905871)"><g><path d="M 18.578125 2.671875 C 16.046875 2.671875 14.195312 2.050781 13.03125 0.8125 C 11.863281 -0.414062 11.28125 -2.429688 11.28125 -5.234375 C 11.28125 -9.128906 11.796875 -15.0625 12.828125 -23.03125 C 13.859375 -31.007812 15.910156 -44.644531 18.984375 -63.9375 L 15.796875 -70.203125 C 17.992188 -71.628906 20.132812 -72.703125 22.21875 -73.421875 C 24.300781 -74.140625 26.164062 -74.5 27.8125 -74.5 C 31.84375 -74.5 34.882812 -73.234375 36.9375 -70.703125 C 39 -68.171875 40.863281 -63.65625 42.53125 -57.15625 C 44.207031 -50.65625 46.789062 -38.6875 50.28125 -21.25 L 51.203125 -16.734375 L 52.34375 -16.734375 C 54.664062 -26.171875 58.203125 -35.367188 62.953125 -44.328125 C 67.710938 -53.296875 73.015625 -60.566406 78.859375 -66.140625 C 84.710938 -71.710938 90.378906 -74.5 95.859375 -74.5 C 98.523438 -74.5 99.859375 -72.789062 99.859375 -69.375 C 99.859375 -68.550781 99.460938 -65.609375 98.671875 -60.546875 C 97.890625 -55.484375 97.328125 -51.890625 96.984375 -49.765625 C 95.128906 -38.203125 93.722656 -29.050781 92.765625 -22.3125 C 91.816406 -15.582031 91.34375 -10.953125 91.34375 -8.421875 C 91.34375 -4.859375 92.160156 -1.984375 93.796875 0.203125 C 91.054688 1.984375 88.421875 2.875 85.890625 2.875 C 83.429688 2.875 81.632812 2.238281 80.5 0.96875 C 79.375 -0.289062 78.8125 -2.320312 78.8125 -5.125 C 78.8125 -9.164062 79.289062 -15.066406 80.25 -22.828125 C 81.207031 -30.597656 83.054688 -42.726562 85.796875 -59.21875 L 85.171875 -59.21875 C 80.660156 -55.3125 76.609375 -50.144531 73.015625 -43.71875 C 69.421875 -37.289062 66.492188 -30.789062 64.234375 -24.21875 C 61.984375 -17.65625 60.515625 -12.148438 59.828125 -7.703125 C 58.597656 -6.609375 57.226562 -5.75 55.71875 -5.125 C 54.21875 -4.507812 52.75 -4.203125 51.3125 -4.203125 C 48.300781 -4.203125 46.023438 -5.265625 44.484375 -7.390625 C 42.941406 -9.515625 41.382812 -13.773438 39.8125 -20.171875 C 38.238281 -26.566406 35.609375 -38.894531 31.921875 -57.15625 L 31.5 -59.21875 L 30.890625 -59.21875 L 29.859375 -52.34375 C 27.878906 -39.820312 26.390625 -30.085938 25.390625 -23.140625 C 24.398438 -16.191406 23.90625 -11.351562 23.90625 -8.625 C 23.90625 -4.789062 24.726562 -1.914062 26.375 0 C 23.769531 1.78125 21.171875 2.671875 18.578125 2.671875 Z M 18.578125 2.671875 "/></g></g></g><g fill="#ffffff" fill-opacity="1"><g transform="translate(171.333655, 180.905871)"><g/></g></g><g fill="#ffffff" fill-opacity="1"><g transform="translate(212.793425, 180.905871)"><g/></g></g><g fill="#ffffff" fill-opacity="1"><g transform="translate(254.255525, 180.905871)"><g><path d="M 27.40625 2.5625 C 20.625 2.5625 15.285156 1.640625 11.390625 -0.203125 C 7.492188 -2.046875 5.546875 -4.613281 5.546875 -7.90625 C 5.546875 -9.269531 5.953125 -10.566406 6.765625 -11.796875 C 7.585938 -13.035156 8.753906 -14.0625 10.265625 -14.875 C 11.972656 -11.457031 14.265625 -8.84375 17.140625 -7.03125 C 20.015625 -5.21875 23.195312 -4.3125 26.6875 -4.3125 C 31.613281 -4.3125 35.582031 -5.234375 38.59375 -7.078125 C 41.601562 -8.929688 43.109375 -11.597656 43.109375 -15.078125 C 43.109375 -17.203125 41.992188 -18.914062 39.765625 -20.21875 C 37.546875 -21.519531 34.144531 -22.957031 29.5625 -24.53125 C 25.3125 -25.96875 21.816406 -27.332031 19.078125 -28.625 C 16.347656 -29.925781 14.023438 -31.6875 12.109375 -33.90625 C 10.191406 -36.132812 9.234375 -38.890625 9.234375 -42.171875 C 9.234375 -45.941406 10.53125 -49.296875 13.125 -52.234375 C 15.726562 -55.179688 19.335938 -57.472656 23.953125 -59.109375 C 28.578125 -60.753906 33.898438 -61.578125 39.921875 -61.578125 C 45.390625 -61.578125 49.882812 -60.753906 53.40625 -59.109375 C 56.9375 -57.472656 58.703125 -55.390625 58.703125 -52.859375 C 58.703125 -50.390625 57.878906 -48.488281 56.234375 -47.15625 C 54.597656 -45.820312 52.441406 -45.15625 49.765625 -45.15625 C 47.171875 -45.15625 44.945312 -45.972656 43.09375 -47.609375 C 41.25 -49.253906 39.847656 -51.648438 38.890625 -54.796875 C 33.285156 -54.179688 28.890625 -52.863281 25.703125 -50.84375 C 22.523438 -48.832031 20.9375 -46.390625 20.9375 -43.515625 C 20.9375 -41.523438 21.976562 -39.929688 24.0625 -38.734375 C 26.15625 -37.535156 29.523438 -36.117188 34.171875 -34.484375 C 38.546875 -32.972656 42.082031 -31.566406 44.78125 -30.265625 C 47.488281 -28.972656 49.816406 -27.210938 51.765625 -24.984375 C 53.722656 -22.765625 54.703125 -19.976562 54.703125 -16.625 C 54.703125 -13 53.601562 -9.734375 51.40625 -6.828125 C 49.21875 -3.921875 46.054688 -1.628906 41.921875 0.046875 C 37.785156 1.722656 32.945312 2.5625 27.40625 2.5625 Z M 27.40625 2.5625 "/></g></g></g><g clip-path="url(#762db2e020)"><g clip-path="url(#a70666bbca)"><g clip-path="url(#5c8748d7d3)"><path fill="#fee226" d="M 252.796875 150.703125 C 258.082031 132.523438 236.066406 107.457031 219.6875 102.367188 C 209.375 99.164062 199.207031 102.511719 190.484375 107.714844 C 182.023438 112.761719 173.394531 118.265625 166.636719 125.523438 C 159.648438 133.027344 154.570312 142.457031 156.347656 152.953125 C 157.875 161.972656 163.292969 170.304688 169.816406 176.542969 C 183.800781 189.914062 205.179688 197.496094 224.429688 194.824219 C 234.574219 193.414062 242.777344 188.871094 247.34375 179.425781 C 251.628906 170.5625 250.050781 160.15625 252.796875 150.703125 Z M 252.796875 150.703125 " fill-opacity="1" fill-rule="nonzero"/></g></g></g><path fill="#ffffff" d="M 203.355469 176.109375 C 207.25 177.851562 209.46875 175.332031 211.015625 172.132812 C 212.429688 169.214844 214.792969 166.660156 218.015625 166.035156 C 221.800781 165.304688 225.125 167.160156 228.734375 165.21875 C 234.84375 161.9375 238.214844 152.242188 232.074219 147.25 C 229.691406 145.3125 226.492188 144.839844 225.234375 141.648438 C 223.980469 138.46875 224.871094 134.574219 224.09375 131.195312 C 222.507812 124.335938 217.597656 117.84375 209.921875 118.570312 C 206.390625 118.902344 201.960938 120.289062 199.691406 123.191406 C 197.671875 125.773438 196.496094 129.007812 193.957031 131.25 C 188.0625 136.460938 178.9375 132.335938 174.710938 139.914062 C 173.03125 142.921875 173.59375 147.566406 175.195312 150.589844 C 177.3125 154.578125 180.6875 155.328125 184.332031 156.945312 C 187.460938 158.335938 190.675781 160.480469 191.984375 163.648438 C 192.636719 165.238281 192.539062 167.109375 193.246094 168.703125 C 194.261719 170.988281 197.566406 169.195312 199.753906 170.828125 C 201.941406 172.460938 200.707031 174.921875 203.355469 176.109375 " fill-opacity="1" fill-rule="nonzero"/><path fill="#29242c" d="M 203.355469 176.109375 L 203.226562 176.394531 C 204.140625 176.800781 204.980469 176.992188 205.75 176.992188 C 206.414062 176.992188 207.023438 176.851562 207.574219 176.601562 C 208.40625 176.226562 209.109375 175.609375 209.71875 174.855469 C 210.328125 174.101562 210.84375 173.210938 211.300781 172.269531 C 211.992188 170.839844 212.917969 169.503906 214.050781 168.453125 C 215.1875 167.40625 216.53125 166.644531 218.078125 166.34375 C 218.746094 166.214844 219.402344 166.167969 220.050781 166.167969 C 221.636719 166.167969 223.191406 166.449219 224.789062 166.449219 C 226.121094 166.449219 227.488281 166.246094 228.882812 165.496094 C 230.859375 164.433594 232.542969 162.730469 233.738281 160.738281 C 234.933594 158.742188 235.640625 156.453125 235.640625 154.203125 C 235.640625 152.871094 235.390625 151.554688 234.84375 150.328125 C 234.300781 149.101562 233.453125 147.96875 232.273438 147.007812 C 231.035156 146.003906 229.625 145.398438 228.394531 144.652344 C 227.777344 144.28125 227.210938 143.875 226.722656 143.378906 C 226.234375 142.882812 225.824219 142.292969 225.527344 141.535156 C 224.925781 140.011719 224.828125 138.277344 224.800781 136.492188 C 224.765625 134.703125 224.796875 132.867188 224.398438 131.128906 C 223.636719 127.828125 222.117188 124.609375 219.886719 122.203125 C 218.769531 121 217.46875 119.996094 216 119.296875 C 214.527344 118.597656 212.886719 118.199219 211.085938 118.199219 C 210.695312 118.199219 210.296875 118.21875 209.894531 118.257812 C 208.097656 118.425781 206.082031 118.863281 204.214844 119.628906 C 202.347656 120.390625 200.625 121.488281 199.445312 122.996094 C 198.414062 124.316406 197.609375 125.78125 196.75 127.183594 C 195.890625 128.589844 194.980469 129.929688 193.75 131.015625 C 192.320312 132.277344 190.695312 132.976562 188.976562 133.433594 C 186.394531 134.121094 183.601562 134.246094 181.023438 134.914062 C 179.734375 135.25 178.496094 135.726562 177.375 136.488281 C 176.25 137.25 175.25 138.300781 174.433594 139.761719 C 173.691406 141.09375 173.378906 142.707031 173.378906 144.355469 C 173.378906 146.609375 173.964844 148.9375 174.917969 150.734375 C 176.003906 152.785156 177.433594 154.023438 179.035156 154.929688 C 180.636719 155.835938 182.402344 156.429688 184.207031 157.230469 C 185.75 157.917969 187.3125 158.789062 188.640625 159.871094 C 189.972656 160.953125 191.0625 162.246094 191.691406 163.769531 C 192 164.515625 192.140625 165.359375 192.285156 166.226562 C 192.429688 167.09375 192.585938 167.988281 192.957031 168.832031 C 193.101562 169.152344 193.292969 169.414062 193.515625 169.617188 C 193.714844 169.792969 193.9375 169.925781 194.171875 170.023438 C 194.585938 170.195312 195.035156 170.261719 195.5 170.296875 C 196.199219 170.347656 196.9375 170.324219 197.636719 170.402344 C 198.34375 170.480469 199 170.65625 199.5625 171.078125 C 200.070312 171.457031 200.367188 171.867188 200.582031 172.3125 C 200.746094 172.644531 200.859375 172.996094 200.96875 173.359375 C 201.136719 173.902344 201.289062 174.472656 201.609375 175.011719 C 201.929688 175.550781 202.429688 176.039062 203.226562 176.394531 L 203.484375 175.824219 C 202.867188 175.546875 202.503906 175.210938 202.242188 174.835938 C 202.046875 174.550781 201.910156 174.234375 201.792969 173.894531 C 201.617188 173.382812 201.488281 172.808594 201.238281 172.230469 C 200.988281 171.652344 200.605469 171.070312 199.941406 170.578125 C 199.339844 170.128906 198.667969 169.921875 198.003906 169.820312 C 197.503906 169.742188 197.007812 169.722656 196.535156 169.710938 C 195.824219 169.691406 195.167969 169.679688 194.65625 169.53125 C 194.402344 169.457031 194.183594 169.351562 194 169.203125 C 193.816406 169.054688 193.660156 168.859375 193.535156 168.578125 C 193.199219 167.828125 193.050781 166.988281 192.902344 166.121094 C 192.757812 165.257812 192.617188 164.371094 192.273438 163.53125 C 191.59375 161.882812 190.425781 160.515625 189.039062 159.386719 C 187.652344 158.257812 186.042969 157.363281 184.460938 156.660156 C 182.621094 155.847656 180.875 155.253906 179.347656 154.386719 C 177.816406 153.515625 176.503906 152.382812 175.472656 150.441406 C 174.574219 148.746094 174.003906 146.5 174.007812 144.355469 C 174.003906 142.785156 174.308594 141.273438 174.984375 140.066406 C 176.015625 138.222656 177.316406 137.113281 178.8125 136.375 C 179.929688 135.824219 181.160156 135.484375 182.449219 135.234375 C 184.386719 134.851562 186.449219 134.667969 188.46875 134.203125 C 190.484375 133.742188 192.453125 132.996094 194.164062 131.484375 C 195.472656 130.328125 196.417969 128.929688 197.289062 127.511719 C 198.15625 126.089844 198.949219 124.648438 199.941406 123.382812 C 201.027344 121.988281 202.652344 120.941406 204.453125 120.207031 C 206.25 119.46875 208.214844 119.042969 209.953125 118.878906 C 210.339844 118.84375 210.714844 118.828125 211.085938 118.828125 C 212.792969 118.828125 214.335938 119.199219 215.726562 119.863281 C 217.8125 120.855469 219.550781 122.496094 220.902344 124.5 C 222.257812 126.5 223.230469 128.859375 223.785156 131.265625 C 224.164062 132.90625 224.140625 134.703125 224.171875 136.503906 C 224.203125 138.304688 224.289062 140.109375 224.941406 141.765625 C 225.269531 142.601562 225.734375 143.269531 226.273438 143.816406 C 227.082031 144.640625 228.0625 145.203125 229.042969 145.742188 C 230.027344 146.28125 231.015625 146.792969 231.875 147.492188 C 232.980469 148.394531 233.761719 149.441406 234.269531 150.582031 C 234.777344 151.71875 235.011719 152.949219 235.011719 154.203125 C 235.015625 156.320312 234.34375 158.507812 233.199219 160.417969 C 232.058594 162.324219 230.445312 163.945312 228.585938 164.945312 C 227.296875 165.632812 226.058594 165.824219 224.789062 165.824219 C 223.269531 165.824219 221.710938 165.542969 220.050781 165.542969 C 219.371094 165.542969 218.671875 165.589844 217.957031 165.730469 C 216.28125 166.054688 214.828125 166.882812 213.625 167.996094 C 212.417969 169.109375 211.453125 170.511719 210.734375 172 C 210.144531 173.21875 209.457031 174.324219 208.640625 175.109375 C 208.234375 175.503906 207.792969 175.816406 207.316406 176.03125 C 206.839844 176.246094 206.324219 176.367188 205.75 176.367188 C 205.082031 176.367188 204.332031 176.203125 203.484375 175.824219 L 203.355469 176.109375 " fill-opacity="1" fill-rule="nonzero"/><path fill="#e9e9e9" d="M 209.035156 153.171875 C 207.597656 155.890625 200.503906 155.03125 197.929688 156.378906 C 199.609375 158.4375 211.398438 162.722656 215.660156 153.988281 C 218.78125 147.597656 216.277344 140.957031 208.542969 136.90625 C 208.28125 136.769531 212.089844 147.386719 209.035156 153.171875 " fill-opacity="1" fill-rule="nonzero"/><path fill="#e9e9e9" d="M 227.886719 161.65625 C 225.941406 163 217.632812 162.796875 215.417969 165.296875 C 220.460938 163.019531 226.035156 165.832031 229.113281 163.949219 C 233.421875 161.316406 235.617188 153.941406 232.972656 149.652344 C 232.882812 149.507812 232.972656 158.144531 227.886719 161.65625 " fill-opacity="1" fill-rule="nonzero"/><path fill="#e9e9e9" d="M 211.886719 121.289062 C 215.886719 121.617188 218.550781 122.796875 219.574219 124.324219 C 218.136719 121.300781 214.054688 119.425781 210.574219 119.425781 C 208.039062 119.425781 204.617188 120.554688 201.988281 122.757812 C 199.566406 124.789062 197.839844 127.851562 197.511719 129.128906 C 200.515625 125.046875 207.882812 120.960938 211.886719 121.289062 " fill-opacity="1" fill-rule="nonzero"/><path fill="#fbc628" d="M 215.007812 147.121094 C 215.007812 153.207031 210.050781 158.144531 203.9375 158.144531 C 197.820312 158.144531 192.863281 153.207031 192.863281 147.121094 C 192.863281 141.03125 197.820312 136.097656 203.9375 136.097656 C 210.050781 136.097656 215.007812 141.03125 215.007812 147.121094 " fill-opacity="1" fill-rule="nonzero"/><path fill="#29242c" d="M 215.007812 147.121094 L 214.695312 147.121094 C 214.695312 150.078125 213.492188 152.753906 211.542969 154.695312 C 209.59375 156.632812 206.90625 157.832031 203.9375 157.832031 C 200.964844 157.832031 198.277344 156.632812 196.328125 154.695312 C 194.382812 152.753906 193.179688 150.078125 193.175781 147.121094 C 193.179688 144.160156 194.382812 141.484375 196.328125 139.546875 C 198.277344 137.609375 200.964844 136.410156 203.9375 136.410156 C 206.90625 136.410156 209.59375 137.609375 211.542969 139.546875 C 213.492188 141.484375 214.695312 144.160156 214.695312 147.121094 L 215.324219 147.121094 C 215.324219 140.859375 210.226562 135.785156 203.9375 135.785156 C 197.648438 135.785156 192.550781 140.859375 192.550781 147.121094 C 192.550781 153.382812 197.648438 158.457031 203.9375 158.457031 C 210.226562 158.457031 215.324219 153.382812 215.324219 147.121094 L 215.007812 147.121094 " fill-opacity="1" fill-rule="nonzero"/><path fill="#fee226" d="M 206.21875 141.101562 C 208.585938 141.101562 210.785156 141.65625 212.625 142.605469 C 211.132812 139.582031 208.019531 137.496094 204.40625 137.496094 C 199.347656 137.496094 195.25 141.582031 195.25 146.617188 C 195.25 146.785156 195.265625 146.953125 195.273438 147.121094 C 196.894531 143.613281 201.175781 141.101562 206.21875 141.101562 " fill-opacity="1" fill-rule="nonzero"/><g fill="#ffffff" fill-opacity="1"><g transform="translate(91.606975, 230.635151)"><g><path d="M 14.40625 -4.46875 C 16.09375 -4.707031 17.710938 -5.132812 19.265625 -5.75 C 19.503906 -5.175781 19.625 -4.476562 19.625 -3.65625 C 19.625 -2.226562 19.195312 -1.125 18.34375 -0.34375 C 17.488281 0.4375 16.269531 0.828125 14.6875 0.828125 C 12.832031 0.828125 11.082031 0.507812 9.4375 -0.125 C 8.46875 0.53125 7.316406 0.859375 5.984375 0.859375 C 4.578125 0.859375 3.554688 0.507812 2.921875 -0.1875 C 2.285156 -0.894531 1.96875 -2.023438 1.96875 -3.578125 C 1.96875 -4.566406 2.109375 -6.050781 2.390625 -8.03125 C 2.679688 -10.019531 3.234375 -13.328125 4.046875 -17.953125 L 2.296875 -21.46875 C 4.773438 -23.070312 7.035156 -23.875 9.078125 -23.875 C 10.367188 -23.875 11.164062 -23.257812 11.46875 -22.03125 C 12.957031 -22.113281 14.378906 -22.285156 15.734375 -22.546875 C 17.097656 -22.816406 18.769531 -23.203125 20.75 -23.703125 C 20.914062 -22.890625 21 -22.175781 21 -21.5625 C 21 -19.894531 20.441406 -18.582031 19.328125 -17.625 C 18.210938 -16.675781 16.679688 -16.203125 14.734375 -16.203125 C 13.722656 -16.203125 12.492188 -16.390625 11.046875 -16.765625 C 10.828125 -15.515625 10.550781 -14.003906 10.21875 -12.234375 C 10.875 -12.097656 11.535156 -12.03125 12.203125 -12.03125 L 15.15625 -12.78125 C 15.257812 -12.34375 15.3125 -11.816406 15.3125 -11.203125 C 15.3125 -10.265625 14.992188 -9.523438 14.359375 -8.984375 C 13.722656 -8.453125 12.847656 -8.1875 11.734375 -8.1875 C 11.078125 -8.1875 10.34375 -8.285156 9.53125 -8.484375 C 9.226562 -6.535156 9.078125 -5.285156 9.078125 -4.734375 L 9.078125 -4.46875 Z M 14.40625 -4.46875 "/></g></g></g><g fill="#ffffff" fill-opacity="1"><g transform="translate(111.822603, 230.635151)"><g><path d="M 19.859375 -18.9375 C 20.617188 -18.9375 21.195312 -18.738281 21.59375 -18.34375 C 21.988281 -17.945312 22.1875 -17.367188 22.1875 -16.609375 C 22.1875 -12.441406 21.628906 -8.507812 20.515625 -4.8125 C 19.398438 -1.125 17.59375 1.898438 15.09375 4.265625 C 12.59375 6.640625 9.398438 7.828125 5.515625 7.828125 C 3.441406 7.828125 1.84375 7.503906 0.71875 6.859375 C -0.394531 6.210938 -0.953125 5.285156 -0.953125 4.078125 C -0.953125 3.347656 -0.757812 2.648438 -0.375 1.984375 C 0.0078125 1.316406 0.492188 0.820312 1.078125 0.5 C 1.585938 1.300781 2.265625 1.90625 3.109375 2.3125 C 3.953125 2.71875 4.890625 2.921875 5.921875 2.921875 C 7.691406 2.921875 9.328125 2.304688 10.828125 1.078125 C 12.328125 -0.140625 13.484375 -2.175781 14.296875 -5.03125 L 13.453125 -5.03125 C 12.785156 -3.5625 11.84375 -2.410156 10.625 -1.578125 C 9.414062 -0.742188 8.066406 -0.328125 6.578125 -0.328125 C 5.328125 -0.328125 4.222656 -0.632812 3.265625 -1.25 C 2.316406 -1.863281 1.578125 -2.726562 1.046875 -3.84375 C 0.523438 -4.957031 0.265625 -6.25 0.265625 -7.71875 C 0.265625 -10.070312 0.820312 -12.15625 1.9375 -13.96875 C 3.050781 -15.789062 4.609375 -17.203125 6.609375 -18.203125 C 8.617188 -19.210938 10.929688 -19.71875 13.546875 -19.71875 C 14.460938 -19.71875 15.328125 -19.632812 16.140625 -19.46875 C 16.316406 -18.957031 16.4375 -18.382812 16.5 -17.75 C 17.425781 -18.539062 18.546875 -18.9375 19.859375 -18.9375 Z M 9.5 -4.671875 C 10.351562 -4.671875 11.238281 -5.035156 12.15625 -5.765625 C 13.082031 -6.503906 13.867188 -7.769531 14.515625 -9.5625 C 15.160156 -11.363281 15.484375 -13.742188 15.484375 -16.703125 C 13.878906 -16.546875 12.410156 -16.078125 11.078125 -15.296875 C 9.742188 -14.523438 8.691406 -13.53125 7.921875 -12.3125 C 7.148438 -11.09375 6.765625 -9.769531 6.765625 -8.34375 C 6.765625 -7.1875 7.003906 -6.285156 7.484375 -5.640625 C 7.972656 -4.992188 8.644531 -4.671875 9.5 -4.671875 Z M 15.484375 -13.8125 C 15.503906 -14.113281 15.515625 -14.582031 15.515625 -15.21875 C 15.515625 -15.875 15.503906 -16.367188 15.484375 -16.703125 Z M 15.484375 -13.8125 "/></g></g></g><g fill="#ffffff" fill-opacity="1"><g transform="translate(134.437805, 230.635151)"><g><path d="M 19.859375 -18.9375 C 20.617188 -18.9375 21.195312 -18.738281 21.59375 -18.34375 C 21.988281 -17.945312 22.1875 -17.367188 22.1875 -16.609375 C 22.1875 -12.441406 21.628906 -8.507812 20.515625 -4.8125 C 19.398438 -1.125 17.59375 1.898438 15.09375 4.265625 C 12.59375 6.640625 9.398438 7.828125 5.515625 7.828125 C 3.441406 7.828125 1.84375 7.503906 0.71875 6.859375 C -0.394531 6.210938 -0.953125 5.285156 -0.953125 4.078125 C -0.953125 3.347656 -0.757812 2.648438 -0.375 1.984375 C 0.0078125 1.316406 0.492188 0.820312 1.078125 0.5 C 1.585938 1.300781 2.265625 1.90625 3.109375 2.3125 C 3.953125 2.71875 4.890625 2.921875 5.921875 2.921875 C 7.691406 2.921875 9.328125 2.304688 10.828125 1.078125 C 12.328125 -0.140625 13.484375 -2.175781 14.296875 -5.03125 L 13.453125 -5.03125 C 12.785156 -3.5625 11.84375 -2.410156 10.625 -1.578125 C 9.414062 -0.742188 8.066406 -0.328125 6.578125 -0.328125 C 5.328125 -0.328125 4.222656 -0.632812 3.265625 -1.25 C 2.316406 -1.863281 1.578125 -2.726562 1.046875 -3.84375 C 0.523438 -4.957031 0.265625 -6.25 0.265625 -7.71875 C 0.265625 -10.070312 0.820312 -12.15625 1.9375 -13.96875 C 3.050781 -15.789062 4.609375 -17.203125 6.609375 -18.203125 C 8.617188 -19.210938 10.929688 -19.71875 13.546875 -19.71875 C 14.460938 -19.71875 15.328125 -19.632812 16.140625 -19.46875 C 16.316406 -18.957031 16.4375 -18.382812 16.5 -17.75 C 17.425781 -18.539062 18.546875 -18.9375 19.859375 -18.9375 Z M 9.5 -4.671875 C 10.351562 -4.671875 11.238281 -5.035156 12.15625 -5.765625 C 13.082031 -6.503906 13.867188 -7.769531 14.515625 -9.5625 C 15.160156 -11.363281 15.484375 -13.742188 15.484375 -16.703125 C 13.878906 -16.546875 12.410156 -16.078125 11.078125 -15.296875 C 9.742188 -14.523438 8.691406 -13.53125 7.921875 -12.3125 C 7.148438 -11.09375 6.765625 -9.769531 6.765625 -8.34375 C 6.765625 -7.1875 7.003906 -6.285156 7.484375 -5.640625 C 7.972656 -4.992188 8.644531 -4.671875 9.5 -4.671875 Z M 15.484375 -13.8125 C 15.503906 -14.113281 15.515625 -14.582031 15.515625 -15.21875 C 15.515625 -15.875 15.503906 -16.367188 15.484375 -16.703125 Z M 15.484375 -13.8125 "/></g></g></g><g fill="#ffffff" fill-opacity="1"><g transform="translate(157.053008, 230.635151)"><g/></g></g><g fill="#ffffff" fill-opacity="1"><g transform="translate(166.454072, 230.635151)"><g><path d="M 26.109375 -20.78125 C 26.109375 -20.289062 25.976562 -19.304688 25.71875 -17.828125 C 25.46875 -16.347656 25.191406 -14.800781 24.890625 -13.1875 C 24.015625 -8.488281 23.578125 -5.671875 23.578125 -4.734375 C 23.578125 -3.722656 23.644531 -2.910156 23.78125 -2.296875 C 23.925781 -1.679688 24.1875 -1.125 24.5625 -0.625 C 23.3125 0.363281 21.953125 0.859375 20.484375 0.859375 C 19.078125 0.859375 18.054688 0.507812 17.421875 -0.1875 C 16.785156 -0.894531 16.46875 -2.023438 16.46875 -3.578125 C 16.46875 -4.609375 16.644531 -6.34375 17 -8.78125 L 9.59375 -8.78125 C 9.25 -6.632812 9.078125 -5.285156 9.078125 -4.734375 C 9.078125 -3.722656 9.144531 -2.910156 9.28125 -2.296875 C 9.425781 -1.679688 9.6875 -1.125 10.0625 -0.625 C 8.8125 0.363281 7.453125 0.859375 5.984375 0.859375 C 4.578125 0.859375 3.554688 0.507812 2.921875 -0.1875 C 2.285156 -0.894531 1.96875 -2.023438 1.96875 -3.578125 C 1.96875 -4.546875 2.101562 -5.992188 2.375 -7.921875 C 2.65625 -9.847656 3.210938 -13.191406 4.046875 -17.953125 L 2.296875 -21.46875 C 4.773438 -23.070312 7.035156 -23.875 9.078125 -23.875 C 10.765625 -23.875 11.609375 -22.84375 11.609375 -20.78125 C 11.609375 -20.34375 11.503906 -19.476562 11.296875 -18.1875 C 11.085938 -16.90625 10.847656 -15.554688 10.578125 -14.140625 L 10.328125 -12.6875 L 17.65625 -12.6875 C 17.875 -14.070312 18.171875 -15.828125 18.546875 -17.953125 L 16.796875 -21.46875 C 19.273438 -23.070312 21.535156 -23.875 23.578125 -23.875 C 25.265625 -23.875 26.109375 -22.84375 26.109375 -20.78125 Z M 26.109375 -20.78125 "/></g></g></g><g fill="#ffffff" fill-opacity="1"><g transform="translate(193.079545, 230.635151)"><g><path d="M 18.015625 -17.21875 C 19.285156 -17.21875 20.320312 -16.707031 21.125 -15.6875 C 21.925781 -14.675781 22.328125 -13.359375 22.328125 -11.734375 C 22.328125 -9.429688 21.800781 -7.320312 20.75 -5.40625 C 19.695312 -3.488281 18.265625 -1.96875 16.453125 -0.84375 C 14.640625 0.269531 12.648438 0.828125 10.484375 0.828125 C 8.671875 0.828125 7.082031 0.472656 5.71875 -0.234375 C 4.363281 -0.953125 3.316406 -1.960938 2.578125 -3.265625 C 1.847656 -4.578125 1.484375 -6.097656 1.484375 -7.828125 C 1.484375 -10.128906 2.019531 -12.175781 3.09375 -13.96875 C 4.164062 -15.769531 5.648438 -17.175781 7.546875 -18.1875 C 9.441406 -19.207031 11.582031 -19.71875 13.96875 -19.71875 C 14.71875 -19.71875 15.5 -19.632812 16.3125 -19.46875 C 16.53125 -18.695312 16.628906 -17.863281 16.609375 -16.96875 C 17.085938 -17.132812 17.554688 -17.21875 18.015625 -17.21875 Z M 11.546875 -2.5625 C 12.816406 -2.5625 13.875 -3.066406 14.71875 -4.078125 C 15.5625 -5.085938 16.09375 -6.476562 16.3125 -8.25 C 14.644531 -9.164062 13.8125 -10.566406 13.8125 -12.453125 C 13.8125 -13.398438 14.019531 -14.25 14.4375 -15 C 14.851562 -15.757812 15.410156 -16.335938 16.109375 -16.734375 C 14.484375 -16.648438 13.054688 -16.195312 11.828125 -15.375 C 10.609375 -14.550781 9.660156 -13.472656 8.984375 -12.140625 C 8.316406 -10.816406 7.984375 -9.359375 7.984375 -7.765625 C 7.984375 -5.960938 8.296875 -4.644531 8.921875 -3.8125 C 9.546875 -2.976562 10.421875 -2.5625 11.546875 -2.5625 Z M 11.546875 -2.5625 "/></g></g></g><g fill="#ffffff" fill-opacity="1"><g transform="translate(216.253566, 230.635151)"><g><path d="M 21.375 -3.78125 C 21.375 -2.351562 21.710938 -1.351562 22.390625 -0.78125 C 21.140625 0.289062 19.832031 0.828125 18.46875 0.828125 C 17.289062 0.828125 16.390625 0.5625 15.765625 0.03125 C 15.140625 -0.488281 14.757812 -1.300781 14.625 -2.40625 L 14.296875 -2.5625 C 13.398438 -1.488281 12.347656 -0.65625 11.140625 -0.0625 C 9.941406 0.53125 8.617188 0.828125 7.171875 0.828125 C 5.410156 0.828125 4.101562 0.390625 3.25 -0.484375 C 2.394531 -1.367188 1.96875 -2.707031 1.96875 -4.5 C 1.96875 -5.3125 2.03125 -6.171875 2.15625 -7.078125 C 2.289062 -7.992188 2.492188 -9.085938 2.765625 -10.359375 C 2.941406 -11.234375 3.09375 -12.101562 3.21875 -12.96875 C 3.351562 -13.832031 3.421875 -14.550781 3.421875 -15.125 C 3.421875 -15.757812 3.359375 -16.335938 3.234375 -16.859375 C 3.117188 -17.390625 2.953125 -17.804688 2.734375 -18.109375 C 3.628906 -18.566406 4.5625 -18.945312 5.53125 -19.25 C 6.507812 -19.5625 7.296875 -19.71875 7.890625 -19.71875 C 8.785156 -19.71875 9.4375 -19.535156 9.84375 -19.171875 C 10.25 -18.816406 10.453125 -18.222656 10.453125 -17.390625 C 10.453125 -16.867188 10.34375 -16.023438 10.125 -14.859375 C 9.90625 -13.691406 9.675781 -12.519531 9.4375 -11.34375 C 9.195312 -10.195312 8.972656 -9.078125 8.765625 -7.984375 C 8.554688 -6.890625 8.453125 -6.113281 8.453125 -5.65625 C 8.453125 -4.800781 8.625 -4.175781 8.96875 -3.78125 C 9.320312 -3.382812 9.882812 -3.1875 10.65625 -3.1875 C 11.375 -3.1875 12.109375 -3.410156 12.859375 -3.859375 C 13.617188 -4.304688 14.285156 -4.914062 14.859375 -5.6875 C 15.160156 -7.59375 15.773438 -10.53125 16.703125 -14.5 L 14.859375 -17.265625 C 16.367188 -18.160156 17.609375 -18.789062 18.578125 -19.15625 C 19.554688 -19.53125 20.472656 -19.71875 21.328125 -19.71875 C 22.210938 -19.71875 22.84375 -19.53125 23.21875 -19.15625 C 23.601562 -18.789062 23.796875 -18.171875 23.796875 -17.296875 C 23.796875 -17.003906 23.710938 -16.476562 23.546875 -15.71875 C 23.390625 -14.96875 23.210938 -14.144531 23.015625 -13.25 C 22.503906 -11.164062 22.101562 -9.347656 21.8125 -7.796875 C 21.519531 -6.253906 21.375 -4.914062 21.375 -3.78125 Z M 21.375 -3.78125 "/></g></g></g><g fill="#ffffff" fill-opacity="1"><g transform="translate(240.90677, 230.635151)"><g><path d="M 9.234375 0.828125 C 6.367188 0.828125 4.285156 0.460938 2.984375 -0.265625 C 1.691406 -1.003906 1.046875 -2 1.046875 -3.25 C 1.046875 -3.820312 1.207031 -4.414062 1.53125 -5.03125 C 1.863281 -5.644531 2.328125 -6.171875 2.921875 -6.609375 C 4.191406 -4.328125 6.175781 -3.1875 8.875 -3.1875 C 9.601562 -3.1875 10.347656 -3.351562 11.109375 -3.6875 C 11.878906 -4.03125 12.265625 -4.519531 12.265625 -5.15625 C 12.265625 -5.550781 12.007812 -5.867188 11.5 -6.109375 C 11 -6.347656 10.15625 -6.65625 8.96875 -7.03125 C 7.59375 -7.445312 6.441406 -7.859375 5.515625 -8.265625 C 4.597656 -8.671875 3.800781 -9.25 3.125 -10 C 2.445312 -10.757812 2.109375 -11.734375 2.109375 -12.921875 C 2.109375 -15.222656 3.101562 -16.929688 5.09375 -18.046875 C 7.09375 -19.160156 9.601562 -19.71875 12.625 -19.71875 C 14.925781 -19.71875 16.742188 -19.363281 18.078125 -18.65625 C 19.421875 -17.945312 20.09375 -17.007812 20.09375 -15.84375 C 20.09375 -14.851562 19.738281 -14.070312 19.03125 -13.5 C 18.332031 -12.9375 17.488281 -12.65625 16.5 -12.65625 C 15.582031 -12.65625 14.726562 -12.9375 13.9375 -13.5 C 13.144531 -14.070312 12.519531 -14.910156 12.0625 -16.015625 C 11.144531 -15.921875 10.359375 -15.664062 9.703125 -15.25 C 9.046875 -14.832031 8.71875 -14.316406 8.71875 -13.703125 C 8.71875 -13.203125 8.988281 -12.804688 9.53125 -12.515625 C 10.082031 -12.234375 10.984375 -11.910156 12.234375 -11.546875 C 13.585938 -11.128906 14.707031 -10.722656 15.59375 -10.328125 C 16.488281 -9.929688 17.257812 -9.347656 17.90625 -8.578125 C 18.550781 -7.816406 18.875 -6.820312 18.875 -5.59375 C 18.875 -4.125 18.367188 -2.90625 17.359375 -1.9375 C 16.347656 -0.976562 15.101562 -0.28125 13.625 0.15625 C 12.144531 0.601562 10.679688 0.828125 9.234375 0.828125 Z M 9.234375 0.828125 "/></g></g></g><g fill="#ffffff" fill-opacity="1"><g transform="translate(261.648338, 230.635151)"><g><path d="M 20.71875 -14.953125 C 20.71875 -13.441406 20.203125 -12.132812 19.171875 -11.03125 C 18.140625 -9.925781 16.664062 -9.082031 14.75 -8.5 C 12.832031 -7.914062 10.554688 -7.625 7.921875 -7.625 L 7.921875 -7.328125 C 7.921875 -5.835938 8.175781 -4.671875 8.6875 -3.828125 C 9.207031 -2.984375 9.925781 -2.5625 10.84375 -2.5625 C 11.96875 -2.5625 12.890625 -2.972656 13.609375 -3.796875 C 14.328125 -4.617188 14.710938 -5.695312 14.765625 -7.03125 C 16.078125 -7.03125 17.078125 -6.789062 17.765625 -6.3125 C 18.453125 -5.832031 18.796875 -5.128906 18.796875 -4.203125 C 18.796875 -3.285156 18.410156 -2.441406 17.640625 -1.671875 C 16.878906 -0.910156 15.835938 -0.304688 14.515625 0.140625 C 13.191406 0.597656 11.726562 0.828125 10.125 0.828125 C 7.382812 0.828125 5.242188 0.101562 3.703125 -1.34375 C 2.171875 -2.789062 1.40625 -4.804688 1.40625 -7.390625 C 1.40625 -9.742188 1.960938 -11.851562 3.078125 -13.71875 C 4.203125 -15.59375 5.75 -17.0625 7.71875 -18.125 C 9.695312 -19.1875 11.910156 -19.71875 14.359375 -19.71875 C 16.378906 -19.71875 17.941406 -19.300781 19.046875 -18.46875 C 20.160156 -17.632812 20.71875 -16.460938 20.71875 -14.953125 Z M 13.25 -15.875 C 12.175781 -15.875 11.171875 -15.328125 10.234375 -14.234375 C 9.304688 -13.140625 8.644531 -11.757812 8.25 -10.09375 C 10.414062 -10.269531 12.085938 -10.71875 13.265625 -11.4375 C 14.441406 -12.164062 15.03125 -13.109375 15.03125 -14.265625 C 15.03125 -14.742188 14.863281 -15.128906 14.53125 -15.421875 C 14.195312 -15.722656 13.769531 -15.875 13.25 -15.875 Z M 13.25 -15.875 "/></g></g></g></svg>